<svg width="59" height="80" viewBox="0 0 59 80" fill="none" xmlns="http://www.w3.org/2000/svg">
<g clip-path="url(#clip0_26_35)">
<path d="M5.16676 79.9136C4.83583 80.1045 4.54284 79.9364 4.33613 79.8168L0.440914 77.5455C0.256015 77.4372 0.145075 77.1637 0.144127 76.9007L0 25.5864C0 25.2911 0.137489 25.0689 0.370747 24.9341L43.3234 0.10068C43.6107 -0.0654899 43.9188 -0.00661817 44.1654 0.136763L48.0701 2.41282C48.2151 2.49733 48.4029 2.75181 48.4038 2.9797L48.5527 54.4905C48.5043 54.7184 48.4427 54.8931 48.2559 55.0004L5.16676 79.9136ZM4.73058 27.1427L42.8151 5.12092L39.98 3.46301L1.87839 25.4924C2.81806 26.0878 3.77479 26.6556 4.73058 27.1427ZM47.3058 54.1098L47.1797 4.01945L5.31562 28.2423L5.44173 78.3374L47.3058 54.1098ZM4.19674 73.1918L4.07822 28.2423L1.23835 26.5996L1.35877 71.5814L4.19674 73.1918Z" fill="white"/>
<path d="M18.6827 35.0951C16.5576 36.1529 16.8985 38.2818 16.0892 38.3711C15.8636 38.3957 15.5742 38.2058 15.4861 37.8944C15.1122 36.5764 14.3838 35.5984 13.3861 35.0894C13.1784 34.9831 13.0165 34.6783 12.9993 34.421C12.9792 34.1266 13.0996 33.7525 13.3352 33.6319C14.3064 33.1315 15.0685 32.2047 15.4467 30.9019C15.5276 30.6228 15.7103 30.3607 15.8965 30.3085C16.0928 30.2525 16.4666 30.3958 16.5461 30.6741C16.9329 32.0272 17.6384 33.065 18.6705 33.5825C18.9148 33.705 19.0845 34.0117 19.0809 34.3317C19.0774 34.6517 18.932 34.9717 18.682 35.0961L18.6827 35.0951ZM16.0312 37.1822C16.5132 35.9013 17.2072 34.9745 18.1756 34.3336C17.1879 33.6927 16.506 32.7849 16.0376 31.4916C15.5763 32.7887 14.8572 33.723 13.8889 34.344C14.8623 34.9679 15.5541 35.8643 16.0312 37.1822Z" fill="white"/>
<path d="M19.5826 53.2257C17.6071 54.3177 17.9276 56.5301 17.2083 56.5662C16.9919 56.5767 16.7635 56.3915 16.6808 56.063C16.3584 54.7773 15.7236 53.7831 14.8605 53.2969C14.6573 53.183 14.5153 52.8962 14.4989 52.6266C14.4813 52.3303 14.5734 51.9514 14.7715 51.8375C15.6631 51.3247 16.3477 50.3534 16.6795 49.0022C16.7521 48.7069 16.9635 48.4932 17.1446 48.4818C17.3256 48.4704 17.5774 48.6537 17.6487 48.9404C17.9926 50.3163 18.6639 51.3114 19.5832 51.8384C19.746 51.9315 19.8533 52.298 19.8527 52.5316C19.852 52.7652 19.7479 53.1346 19.5826 53.2257ZM17.173 55.3897C17.5862 54.0528 18.2424 53.1099 19.081 52.5269C18.2033 51.9182 17.5888 50.9753 17.1736 49.6678C16.7609 51.0114 16.0984 51.9324 15.2775 52.5335C16.1489 53.1469 16.7653 54.0946 17.173 55.3897Z" fill="white"/>
<path d="M34.6988 46.3615C32.843 47.4791 33.2075 49.6649 32.4559 49.6687C32.2465 49.6697 32.0586 49.4437 31.9757 49.0943C31.6643 47.7877 31.0319 46.8495 30.2171 46.3539C30.0488 46.2513 29.9248 45.8971 29.9271 45.6607C29.9295 45.354 30.053 45.0141 30.2439 44.9001C31.0797 44.4007 31.6851 43.4122 32.0025 42.0961C32.0806 41.7723 32.3097 41.5834 32.5149 41.6024C32.701 41.6194 32.8806 41.8568 32.9576 42.1863C33.2499 43.4331 33.8518 44.3779 34.6314 44.864C34.8402 44.9941 34.9852 45.2524 34.9989 45.5658C35.0126 45.8791 34.8969 46.2418 34.6988 46.3615ZM32.463 48.4818C32.8526 47.2246 33.4217 46.2551 34.2491 45.6427C33.4372 44.997 32.8675 44.0987 32.4636 42.7988C32.0765 44.1082 31.4656 45.0093 30.6836 45.6531C31.5002 46.2789 32.0663 47.1866 32.463 48.4818Z" fill="white"/>
<path d="M8.79363 73.6457C8.54899 73.7871 8.25221 73.7435 8.10049 73.6495C7.9668 73.5668 7.82741 73.357 7.82646 73.0911L7.70225 29.9505C7.70225 29.753 7.83405 29.5166 7.99145 29.4254L43.8297 8.70636C44.0639 8.57153 44.337 8.59622 44.4944 8.69022C44.6945 8.81081 44.7959 9.03301 44.7969 9.34161L44.9163 52.2961C44.9163 52.6085 44.7864 52.8355 44.5219 52.9883L8.79363 73.6457ZM43.677 51.2868L43.5528 10.3234L40.7367 11.9443L40.8448 49.6706L43.677 51.2868ZM39.6083 49.6687L39.5059 12.6394L8.94155 30.3085L9.04016 67.354L39.6083 49.6687ZM9.08093 72.0485L43.0313 52.4167L40.2275 50.7446L9.0487 68.7697L9.08093 72.0485Z" fill="white"/>
</g>
<defs>
<clipPath id="clip0_26_35">
<rect width="59" height="80" fill="white"/>
</clipPath>
</defs>
</svg>
