<svg width="59" height="80" viewBox="0 0 59 80" fill="none" xmlns="http://www.w3.org/2000/svg">
<g clip-path="url(#clip0_26_35)">
<path d="M5.16676 79.9136C4.83583 80.1045 4.54284 79.9364 4.33613 79.8168L0.440914 77.5455C0.256015 77.4372 0.145075 77.1638 0.144127 76.9007L0 25.5865C0 25.2912 0.137489 25.069 0.370747 24.9341L43.3234 0.100711C43.6107 -0.0654594 43.9188 -0.00658766 44.1654 0.136793L48.0701 2.41285C48.2151 2.49736 48.4029 2.75184 48.4038 2.97973L48.5527 54.4906C48.5043 54.7185 48.4427 54.8932 48.2559 55.0005L5.16676 79.9136ZM4.73058 27.1428L42.8151 5.12095L39.98 3.46304L1.87839 25.4925C2.81806 26.0878 3.77385 26.6556 4.72963 27.1428H4.73058ZM47.3058 54.1098L47.1797 4.01948L5.31562 28.2423L5.44173 78.3374L47.3058 54.1098ZM4.19674 73.1918L4.07822 28.2423L1.23835 26.5996L1.31611 53.2809L1.35877 71.5814L4.19674 73.1928V73.1918Z" fill="black"/>
<path d="M11.8231 11.1761C9.00979 12.2339 9.46114 14.3627 8.38967 14.452C8.09098 14.4767 7.70791 14.2868 7.59128 13.9753C7.09632 12.6574 6.132 11.6793 4.81115 11.1704C4.53617 11.064 4.32188 10.7592 4.29912 10.5019C4.27257 10.2075 4.43187 9.83343 4.74383 9.71283C6.02959 9.21242 7.03848 8.28567 7.53913 6.9829C7.64628 6.70373 7.88807 6.44166 8.1346 6.38943C8.39441 6.33341 8.88937 6.47679 8.99462 6.75501C9.50665 8.10811 10.4406 9.14596 11.807 9.66346C12.1303 9.78595 12.355 10.0927 12.3503 10.4126C12.3456 10.7326 12.1531 11.0526 11.8222 11.177L11.8231 11.1761ZM8.31286 13.2632C8.951 11.9822 9.86981 11.0555 11.1518 10.4145C9.84421 9.7736 8.94152 8.86584 8.3214 7.57256C7.71075 8.86964 6.75876 9.80399 5.47679 10.425C6.7654 11.0488 7.68136 11.9452 8.31286 13.2632Z" fill="black"/>
<path d="M33.4952 75.0082C30.5264 76.1002 31.0081 78.3126 29.9271 78.3487C29.6019 78.3592 29.2587 78.174 29.1344 77.8455C28.6499 76.5598 27.696 75.5656 26.3989 75.0794C26.0936 74.9655 25.8802 74.6787 25.8556 74.4091C25.829 74.1128 25.9675 73.7339 26.2652 73.62C27.605 73.1072 28.6338 72.1359 29.1326 70.7847C29.2416 70.4893 29.5592 70.2757 29.8314 70.2643C30.1035 70.2529 30.4818 70.4362 30.589 70.7229C31.1058 72.0988 32.1146 73.0939 33.4962 73.6209C33.7408 73.714 33.902 74.0805 33.9011 74.3141C33.9001 74.5477 33.7437 74.9161 33.4952 75.0073V75.0082ZM29.874 77.1722C30.4951 75.8353 31.4812 74.8924 32.7414 74.3094C31.4225 73.7007 30.4989 72.7578 29.875 71.4503C29.2549 72.7939 28.2593 73.7149 27.0256 74.316C28.3351 74.9294 29.2615 75.877 29.874 77.1722Z" fill="black"/>
<path d="M58.5212 22.0332C55.5713 23.1509 56.1507 25.3367 54.9559 25.3405C54.6231 25.3415 54.3244 25.1155 54.1926 24.766C53.6977 23.4595 52.6926 22.5213 51.3973 22.0257C51.1299 21.9231 50.9327 21.5689 50.9365 21.3325C50.9403 21.0258 51.1366 20.6858 51.44 20.5719C52.7684 20.0724 53.7309 19.084 54.2353 17.7679C54.3595 17.4441 54.7236 17.2551 55.0498 17.2741C55.3457 17.2912 55.6311 17.5286 55.7534 17.8581C56.218 19.1049 57.1747 20.0497 58.414 20.5358C58.7459 20.6659 58.9763 20.9242 58.9981 21.2375C59.0199 21.5509 58.836 21.9146 58.5212 22.0342V22.0332ZM54.9673 24.1536C55.5865 22.8964 56.4911 21.9269 57.8062 21.3144C56.5157 20.6688 55.6102 19.7705 54.9683 18.4706C54.3529 19.78 53.3819 20.6811 52.1388 21.3249C53.4369 21.9506 54.3358 22.8584 54.9664 24.1536H54.9673Z" fill="black"/>
<path d="M8.79365 73.6456C8.54901 73.7871 8.25223 73.7434 8.10052 73.6494C7.96682 73.5668 7.82743 73.357 7.82648 73.0911L7.70227 29.9505C7.70227 29.753 7.83407 29.5165 7.99147 29.4254L43.8297 8.70634C44.0639 8.57151 44.337 8.5962 44.4944 8.6902C44.6945 8.81079 44.7959 9.03299 44.7969 9.34159L44.9164 52.2961C44.9164 52.6085 44.7865 52.8354 44.5219 52.9883L8.79365 73.6456ZM43.6771 51.2867L43.5529 10.3234L40.7367 11.9443L40.8448 49.6706L43.6771 51.2867ZM39.6083 49.6687L39.5059 12.6394L8.94157 30.3085L9.04018 67.354L39.6083 49.6678V49.6687ZM9.08096 72.0485L43.0313 52.4167L40.2275 50.7445L9.04872 68.7697L9.08096 72.0476V72.0485Z" fill="black"/>
</g>
<defs>
<clipPath id="clip0_26_35">
<rect width="59" height="80" fill="white"/>
</clipPath>
</defs>
</svg>
